<svg class="logo" width="56" height="32" viewBox="0 0 56 32" fill="none" xmlns="http://www.w3.org/2000/svg">
  <path d="M47.7031 24.8999H56.0031L28.3365 0L0.669922 24.8999H8.96989L28.3365 7.44231L47.7031 24.8999ZM14.5032 5.00765V0H6.20324V12.45L14.5032 5.00765Z" fill="currentColor"/>
  <path d="M26.5157 23.7379C26.5157 24.4462 26.3497 25.0936 26.0177 25.6801C25.6968 26.2556 25.2043 26.7204 24.5403 27.0745C23.8874 27.4176 23.085 27.5891 22.1333 27.5891H20.5231V31.5399H17.2695V19.8369H22.1333C23.074 19.8369 23.8708 20.0029 24.5237 20.3349C25.1877 20.6669 25.6857 21.1262 26.0177 21.7127C26.3497 22.2992 26.5157 22.9743 26.5157 23.7379ZM21.8179 24.9995C22.7364 24.9995 23.1957 24.579 23.1957 23.7379C23.1957 22.8858 22.7364 22.4597 21.8179 22.4597H20.5231V24.9995H21.8179Z" fill="currentColor"/>
  <path d="M39.2104 19.8369L35.1766 31.5399H31.01L26.9596 19.8369H30.4456L33.1016 28.2863L35.741 19.8369H39.2104Z" fill="currentColor"/>
</svg>
